<svg class="animated" id="freepik_stories-barbershop-waiting-clients" xmlns="http://www.w3.org/2000/svg" viewBox="0 0 500 500" version="1.1" xmlns:xlink="http://www.w3.org/1999/xlink" xmlns:svgjs="http://svgjs.com/svgjs"><style>svg#freepik_stories-barbershop-waiting-clients:not(.animated) .animable {opacity: 0;}svg#freepik_stories-barbershop-waiting-clients.animated #freepik--Character--inject-63 {animation: 1s 1 forwards ease-in slideUp,1.5s Infinite  linear floating;animation-delay: 0s,1s;}            @keyframes slideUp {                0% {                    opacity: 0;                    transform: translateY(30px);                }                100% {                    opacity: 1;                    transform: inherit;                }            }                    @keyframes floating {                0% {                    opacity: 1;                    transform: translateY(0px);                }                50% {                    transform: translateY(-10px);                }                100% {                    opacity: 1;                    transform: translateY(0px);                }            }        </style><g id="freepik--background-complete--inject-63" class="animable" style="transform-origin: 249.945px 226.856px;"><rect x="361.44" y="72.18" width="91.19" height="7.94" style="fill: rgb(224, 224, 224); transform-origin: 407.035px 76.15px;" id="elkh6l0v2wr5s" class="animable"></rect><path d="M383.5,43.64V35.22a1,1,0,0,1,1-1h.37a1,1,0,0,1,1,1v.39h6.25v2.14H386v5.89Z" style="fill: rgb(224, 224, 224); transform-origin: 387.81px 38.93px;" id="eludlo65bf4ta" class="animable"></path><rect x="376.46" y="45.34" width="16.54" height="26.75" rx="2.29" style="fill: rgb(235, 235, 235); transform-origin: 384.73px 58.715px;" id="eln3xunmx5u7d" class="animable"></rect><path d="M381.91,41.95h6A1.05,1.05,0,0,1,389,43v2.34a0,0,0,0,1,0,0h-8.14a0,0,0,0,1,0,0V43A1.05,1.05,0,0,1,381.91,41.95Z" style="fill: rgb(235, 235, 235); transform-origin: 384.93px 43.6446px;" id="ela9mixmk2m9d" class="animable"></path><rect x="385.84" y="49.51" width="7.17" height="17.7" style="fill: rgb(250, 250, 250); transform-origin: 389.425px 58.36px;" id="elctfyuil7njw" class="animable"></rect><path d="M389,45.25a33.57,33.57,0,0,1-8.34,0,33.57,33.57,0,0,1,8.34,0Z" style="fill: rgb(224, 224, 224); transform-origin: 384.83px 45.25px;" id="el30umpsevong" class="animable"></path><path d="M377.48,62.93a59.35,59.35,0,0,1-.26-7.79,59.44,59.44,0,0,1,.26-7.8,59.44,59.44,0,0,1,.26,7.8A59.35,59.35,0,0,1,377.48,62.93Z" style="fill: rgb(250, 250, 250); transform-origin: 377.48px 55.135px;" id="el4377mrgvf8l" class="animable"></path><path d="M406.19,43.64V35.22a1,1,0,0,1,1-1h.38a1,1,0,0,1,1,1v.39h6.26v2.14h-6.18v5.89Z" style="fill: rgb(224, 224, 224); transform-origin: 410.51px 38.93px;" id="el6khaas98csx" class="animable"></path><rect x="399.15" y="45.34" width="16.54" height="26.75" rx="2.29" style="fill: rgb(235, 235, 235); transform-origin: 407.42px 58.715px;" id="el4ez57qpyukr" class="animable"></rect><path d="M404.59,41.95h6A1.05,1.05,0,0,1,411.68,43v2.34a0,0,0,0,1,0,0h-8.14a0,0,0,0,1,0,0V43A1.05,1.05,0,0,1,404.59,41.95Z" style="fill: rgb(235, 235, 235); transform-origin: 407.61px 43.6446px;" id="elhxhfs85arq" class="animable"></path><rect x="408.52" y="49.51" width="7.17" height="17.7" style="fill: rgb(250, 250, 250); transform-origin: 412.105px 58.36px;" id="el8oakd03exq9" class="animable"></rect><path d="M411.68,45.25a33.57,33.57,0,0,1-8.34,0,33.57,33.57,0,0,1,8.34,0Z" style="fill: rgb(224, 224, 224); transform-origin: 407.51px 45.25px;" id="elns6ohsv224b" class="animable"></path><path d="M400.17,62.93a57.33,57.33,0,0,1-.26-7.79,57.42,57.42,0,0,1,.26-7.8,60.61,60.61,0,0,1,.25,7.8A60.51,60.51,0,0,1,400.17,62.93Z" style="fill: rgb(250, 250, 250); transform-origin: 400.164px 55.135px;" id="elbe64if9kvgl" class="animable"></path><path d="M428.75,43.64V35.22a1,1,0,0,1,1-1h.38a1,1,0,0,1,1,1v.39h6.26v2.14h-6.18v5.89Z" style="fill: rgb(224, 224, 224); transform-origin: 433.07px 38.93px;" id="elhnr2efj8fbj" class="animable"></path><rect x="421.71" y="45.34" width="16.54" height="26.75" rx="2.29" style="fill: rgb(235, 235, 235); transform-origin: 429.98px 58.715px;" id="ele4t5zy6fpwd" class="animable"></rect><path d="M427.16,41.95h6A1.05,1.05,0,0,1,434.24,43v2.34a0,0,0,0,1,0,0H426.1a0,0,0,0,1,0,0V43A1.05,1.05,0,0,1,427.16,41.95Z" style="fill: rgb(235, 235, 235); transform-origin: 430.17px 43.6448px;" id="elfhral0zhk25" class="animable"></path><rect x="431.08" y="49.51" width="7.17" height="17.7" style="fill: rgb(250, 250, 250); transform-origin: 434.665px 58.36px;" id="elo5hz3ixbdbq" class="animable"></rect><path d="M434.24,45.25a33.57,33.57,0,0,1-8.34,0,33.57,33.57,0,0,1,8.34,0Z" style="fill: rgb(224, 224, 224); transform-origin: 430.07px 45.25px;" id="elnwd63svw9fn" class="animable"></path><path d="M422.73,62.93a57.33,57.33,0,0,1-.26-7.79,57.42,57.42,0,0,1,.26-7.8,59.44,59.44,0,0,1,.26,7.8A59.35,59.35,0,0,1,422.73,62.93Z" style="fill: rgb(250, 250, 250); transform-origin: 422.728px 55.135px;" id="elrx9q6ok5whq" class="animable"></path><rect x="361.44" y="179.94" width="91.19" height="7.94" style="fill: rgb(224, 224, 224); transform-origin: 407.035px 183.91px;" id="el64mqk2bp0sq" class="animable"></rect><path d="M383.5,151.4V143a1,1,0,0,1,1-1h.37a1,1,0,0,1,1,1v.39h6.25v2.14H386v5.89Z" style="fill: rgb(224, 224, 224); transform-origin: 387.81px 146.71px;" id="elqcrxbimbxg" class="animable"></path><rect x="376.46" y="153.1" width="16.54" height="26.75" rx="2.29" style="fill: rgb(235, 235, 235); transform-origin: 384.73px 166.475px;" id="el6sjml154mvu" class="animable"></rect><path d="M381.91,149.71h6a1.05,1.05,0,0,1,1.05,1.05v2.34a0,0,0,0,1,0,0h-8.14a0,0,0,0,1,0,0v-2.34A1.05,1.05,0,0,1,381.91,149.71Z" style="fill: rgb(235, 235, 235); transform-origin: 384.89px 151.405px;" id="elrmgghkqax0a" class="animable"></path><rect x="385.84" y="157.27" width="7.17" height="17.7" style="fill: rgb(250, 250, 250); transform-origin: 389.425px 166.12px;" id="elxnqouwc5rg" class="animable"></rect><path d="M389,153a33.57,33.57,0,0,1-8.34,0,33.57,33.57,0,0,1,8.34,0Z" style="fill: rgb(224, 224, 224); transform-origin: 384.83px 153px;" id="elijlw6z5lnc" class="animable"></path><path d="M377.48,170.69a59.35,59.35,0,0,1-.26-7.79,59.44,59.44,0,0,1,.26-7.8,59.44,59.44,0,0,1,.26,7.8A59.35,59.35,0,0,1,377.48,170.69Z" style="fill: rgb(250, 250, 250); transform-origin: 377.48px 162.895px;" id="el4rqxpjtt0iq" class="animable"></path><path d="M406.19,151.4V143a1,1,0,0,1,1-1h.38a1,1,0,0,1,1,1v.39h6.26v2.14h-6.18v5.89Z" style="fill: rgb(224, 224, 224); transform-origin: 410.51px 146.71px;" id="elcfockrlzg15" class="animable"></path><rect x="399.15" y="153.1" width="16.54" height="26.75" rx="2.29" style="fill: rgb(235, 235, 235); transform-origin: 407.42px 166.475px;" id="el047gg01pjtlo" class="animable"></rect><path d="M404.59,149.71h6a1.05,1.05,0,0,1,1.05,1.05v2.34a0,0,0,0,1,0,0h-8.14a0,0,0,0,1,0,0v-2.34A1.05,1.05,0,0,1,404.59,149.71Z" style="fill: rgb(235, 235, 235); transform-origin: 407.57px 151.405px;" id="el9r1qk6jq0ju" class="animable"></path><rect x="408.52" y="157.27" width="7.17" height="17.7" style="fill: rgb(250, 250, 250); transform-origin: 412.105px 166.12px;" id="el228pdokrauq" class="animable"></rect><path d="M411.68,153a33.57,33.57,0,0,1-8.34,0,33.57,33.57,0,0,1,8.34,0Z" style="fill: rgb(224, 224, 224); transform-origin: 407.51px 153px;" id="el0fw6w1cznqnl" class="animable"></path><path d="M400.17,170.69a57.33,57.33,0,0,1-.26-7.79,57.42,57.42,0,0,1,.26-7.8,60.61,60.61,0,0,1,.25,7.8A60.51,60.51,0,0,1,400.17,170.69Z" style="fill: rgb(250, 250, 250); transform-origin: 400.164px 162.895px;" id="elh1yrxxvabjf" class="animable"></path><path d="M428.75,151.4V143a1,1,0,0,1,1-1h.38a1,1,0,0,1,1,1v.39h6.26v2.14h-6.18v5.89Z" style="fill: rgb(224, 224, 224); transform-origin: 433.07px 146.71px;" id="el763uqlxcc8c" class="animable"></path><rect x="421.71" y="153.1" width="16.54" height="26.75" rx="2.29" style="fill: rgb(235, 235, 235); transform-origin: 429.98px 166.475px;" id="eltcmrtwy6a3" class="animable"></rect><path d="M427.16,149.71h6a1.05,1.05,0,0,1,1.05,1.05v2.34a0,0,0,0,1,0,0H426.1a0,0,0,0,1,0,0v-2.34A1.05,1.05,0,0,1,427.16,149.71Z" style="fill: rgb(235, 235, 235); transform-origin: 430.155px 151.405px;" id="eln8p6a69l4h9" class="animable"></path><rect x="431.08" y="157.27" width="7.17" height="17.7" style="fill: rgb(250, 250, 250); transform-origin: 434.665px 166.12px;" id="elo0d7n6yb68q" class="animable"></rect><path d="M434.24,153a33.57,33.57,0,0,1-8.34,0,33.57,33.57,0,0,1,8.34,0Z" style="fill: rgb(224, 224, 224); transform-origin: 430.07px 153px;" id="ele4cd56spwe5" class="animable"></path><path d="M422.73,170.69a57.33,57.33,0,0,1-.26-7.79,57.42,57.42,0,0,1,.26-7.8,59.44,59.44,0,0,1,.26,7.8A59.35,59.35,0,0,1,422.73,170.69Z" style="fill: rgb(250, 250, 250); transform-origin: 422.728px 162.895px;" id="el4rkp6l19eau" class="animable"></path><rect x="361.1" y="114.51" width="91.52" height="7.94" style="fill: rgb(224, 224, 224); transform-origin: 406.86px 118.48px;" id="elctbwyq393e5" class="animable"></rect><rect x="373.22" y="99.37" width="20.05" height="15.14" style="fill: rgb(235, 235, 235); transform-origin: 383.245px 106.94px;" id="elh6seavc03r" class="animable"></rect><path d="M393,104.94a81.48,81.48,0,0,1-9.79.3,81.59,81.59,0,0,1-9.8-.3,81.59,81.59,0,0,1,9.8-.3A81.48,81.48,0,0,1,393,104.94Z" style="fill: rgb(224, 224, 224); transform-origin: 383.205px 104.94px;" id="elia30gr29rsa" class="animable"></path><rect x="380.07" y="107.59" width="12.96" height="3.9" style="fill: rgb(255, 255, 255); transform-origin: 386.55px 109.54px;" id="elxmad4miggac" class="animable"></rect><path d="M393.06,111.52h-13v-4h13Z" style="fill: rgb(250, 250, 250); transform-origin: 386.56px 109.52px;" id="elxi8gosfsuz" class="animable"></path><rect x="397.06" y="99.37" width="20.05" height="15.14" style="fill: rgb(235, 235, 235); transform-origin: 407.085px 106.94px;" id="el2wpgi2vqttj" class="animable"></rect><path d="M416.87,104.94a81.73,81.73,0,0,1-9.8.3,81.73,81.73,0,0,1-9.8-.3,81.73,81.73,0,0,1,9.8-.3A81.73,81.73,0,0,1,416.87,104.94Z" style="fill: rgb(224, 224, 224); transform-origin: 407.07px 104.94px;" id="elajofhqyswhm" class="animable"></path><rect x="403.91" y="107.59" width="12.96" height="3.9" style="fill: rgb(255, 255, 255); transform-origin: 410.39px 109.54px;" id="el7nvfqe6850e" class="animable"></rect><path d="M403.94,111.47h12.9v-3.85h-12.9Z" style="fill: rgb(250, 250, 250); transform-origin: 410.39px 109.545px;" id="elvmx9bi6ns2" class="animable"></path><rect x="421.94" y="99.37" width="20.05" height="15.14" style="fill: rgb(235, 235, 235); transform-origin: 431.965px 106.94px;" id="el62nu0thfzju" class="animable"></rect><path d="M441.76,104.94a81.73,81.73,0,0,1-9.8.3,81.73,81.73,0,0,1-9.8-.3,81.73,81.73,0,0,1,9.8-.3A81.73,81.73,0,0,1,441.76,104.94Z" style="fill: rgb(224, 224, 224); transform-origin: 431.96px 104.94px;" id="elgd6ide8pxdt" class="animable"></path><rect x="428.8" y="107.59" width="12.96" height="3.9" style="fill: rgb(255, 255, 255); transform-origin: 435.28px 109.54px;" id="el9rsmg6c9zi" class="animable"></rect><path d="M441.79,111.52h-13v-4h13Z" style="fill: rgb(250, 250, 250); transform-origin: 435.29px 109.52px;" id="elcorzrnz1n84" class="animable"></path><path d="M451.37,119.77c0,.14-.16.26-.34.26s-.35-.12-.35-.26.16-.26.35-.26S451.37,119.62,451.37,119.77Z" style="fill: rgb(69, 90, 100); transform-origin: 451.025px 119.77px;" id="elu2mduv3f4me" class="animable"></path><rect x="314.97" y="403.77" width="48.65" height="12.87" style="fill: rgb(245, 245, 245); transform-origin: 339.295px 410.205px;" id="elao0rory3hr" class="animable"></rect><path d="M343.05,430.19a1,1,0,0,1,0-.23c0-.17,0-.39,0-.66,0-.61,0-1.45,0-2.53,0-2.22-.05-5.42-.08-9.45l.15.15-48.65.1c.11-.11-.25.25.24-.25h0v12.86l-.24-.24,34.67.11,10.23.07,2.77,0,.72,0h.26l-.23,0-.69,0-2.72,0-10.17.07-34.84.11h-.25V417.33h0c.49-.49.14-.13.25-.24l48.65.09h.15v.15c0,4.07-.07,7.29-.08,9.54,0,1.07,0,1.9,0,2.5,0,.26,0,.46,0,.63A1.23,1.23,0,0,1,343.05,430.19Z" style="fill: rgb(224, 224, 224); transform-origin: 318.745px 423.682px;" id="elcfmpvblfdjw" class="animable"></path><rect x="253.97" y="29.97" width="48.65" height="12.87" style="fill: rgb(245, 245, 245); transform-origin: 278.295px 36.405px;" id="elbezgeesuvyg" class="animable"></rect><path d="M282.05,56.39a2.07,2.07,0,0,1,0-.23l0-.66c0-.61,0-1.45,0-2.53,0-2.22-.05-5.42-.09-9.45l.15.15-48.65.1.25-.25h0v6.53q0,3.22,0,6.33l-.24-.24,34.67.11,10.24.07,2.76,0,.73,0h.25s-.07,0-.22,0l-.7,0-2.71,0-10.18.07-34.84.11h-.24v-.25q0-3.11,0-6.33V43.53h0l.25-.24,48.65.09h.16v.15c0,4.07-.07,7.29-.09,9.54,0,1.07,0,1.9,0,2.5,0,.26,0,.46,0,.63S282.06,56.4,282.05,56.39Z" style="fill: rgb(224, 224, 224); transform-origin: 257.76px 49.895px;" id="ellsn793a39w" class="animable"></path><rect x="109.4" y="391.76" width="48.65" height="12.87" style="fill: rgb(245, 245, 245); transform-origin: 133.725px 398.195px;" id="eljmxw08ladyg" class="animable"></rect><path d="M137.48,418.19a1,1,0,0,1,0-.23v-.66c0-.61,0-1.45,0-2.54,0-2.22,0-5.41-.08-9.44l.15.15-48.65.1c.11-.11-.25.24.24-.25h0v12.85l-.24-.24,34.67.11,10.23.07,2.77,0h.72l.26,0-.23,0h-.69l-2.72,0-10.17.07-34.84.11h-.25V405.34h0l.25-.25,48.65.1h.15v.15c0,4.07-.06,7.29-.08,9.53,0,1.07,0,1.9,0,2.5,0,.26,0,.47,0,.64A1.23,1.23,0,0,1,137.48,418.19Z" style="fill: rgb(224, 224, 224); transform-origin: 113.175px 411.69px;" id="el6ah43dmpmex" class="animable"></path><rect x="40.07" y="271.82" width="48.65" height="12.87" style="fill: rgb(245, 245, 245); transform-origin: 64.395px 278.255px;" id="elf56y30rz1j9" class="animable"></rect><path d="M68.15,298.24a1,1,0,0,1,0-.23v-.66c0-.61,0-1.45,0-2.53,0-2.23,0-5.42-.08-9.45l.15.15-48.65.1c.11-.11-.25.25.24-.25h0v12.86l-.25-.24,34.68.11,10.23.07,2.77,0,.72,0h.26l-.23,0h-.69l-2.72,0-10.18.07-34.84.11h-.24V285.38h0l.25-.25,48.65.1h.15v.15c0,4.07-.07,7.29-.09,9.54,0,1.06,0,1.9,0,2.5,0,.26,0,.46,0,.63A1.23,1.23,0,0,1,68.15,298.24Z" style="fill: rgb(224, 224, 224); transform-origin: 43.845px 291.74px;" id="el9p3y3u54ozs" class="animable"></path><path d="M293.82,346.82s0-.09,0-.24l0-.66c0-.6,0-1.45,0-2.53,0-2.22-.05-5.42-.09-9.44l.15.15-48.65.09.25-.24h0v6.52q0,3.22,0,6.33l-.24-.24,34.67.11,10.24.07,2.76,0h.73l.25,0h-.22l-.7,0-2.71,0L280,347l-34.84.11h-.24v-.24q0-3.1,0-6.33V334h0l.25-.25,48.65.1H294V334c0,4.06-.07,7.29-.09,9.53,0,1.07,0,1.9,0,2.5l0,.63A.85.85,0,0,1,293.82,346.82Z" style="fill: rgb(224, 224, 224); transform-origin: 269.46px 340.43px;" id="el5zh8ry3yt8i" class="animable"></path><path d="M300.42,334a1.41,1.41,0,0,1,0-.25c0-.18,0-.41,0-.68,0-.63,0-1.49,0-2.58,0-2.26-.06-5.44-.1-9.36l.18.17-29.23.07c-.22.23.3-.3.25-.24h0v3.33c0,1.11,0,2.2,0,3.28,0,2.15,0,4.24,0,6.24l-.23-.24,20.91.11,6.09.07,1.64,0,.59,0a3.28,3.28,0,0,1-.53,0l-1.59,0-6,.06-21.07.11H271V334c0-2,0-4.09,0-6.24V321.1h0l.25-.25,29.23.07h.18v.18c0,4-.07,7.18-.1,9.47,0,1.07,0,1.92,0,2.54A6.84,6.84,0,0,1,300.42,334Z" style="fill: rgb(224, 224, 224); transform-origin: 285.83px 327.47px;" id="elh1wwlddgzpf" class="animable"></path><path d="M123.16,166.11s0-.09,0-.24l0-.66c0-.6,0-1.45,0-2.53,0-2.22,0-5.42-.09-9.44l.15.15-48.64.09.24-.24h0v6.52c0,2.14,0,4.26,0,6.33l-.24-.24,34.67.11,10.24.06,2.76,0h.73a1.27,1.27,0,0,1,.25,0h-.22l-.69,0-2.72,0-10.18.07-34.84.11h-.24v-6.57c0-1.08,0-2.16,0-3.25v-3.27h0c.5-.5.14-.14.26-.25l48.64.1h.16v.15c0,4.06-.07,7.29-.09,9.53,0,1.07,0,1.9,0,2.5l0,.63A.85.85,0,0,1,123.16,166.11Z" style="fill: rgb(224, 224, 224); transform-origin: 98.87px 159.518px;" id="elkmuzetgekuk" class="animable"></path><path d="M129.76,153.24s0-.09,0-.25,0-.41,0-.68c0-.63,0-1.49,0-2.58,0-2.26-.06-5.45-.1-9.36l.18.17-29.23.07c-.22.22.3-.3.25-.24h0v3.33c0,1.11,0,2.2,0,3.28v6.24l-.24-.24,20.91.11,6.09.07,1.64,0,.59,0a3.28,3.28,0,0,1-.53,0l-1.59,0-6,.06-21.07.11h-.24v-.23c0-2,0-4.09,0-6.24v-6.61h0l.25-.25,29.23.07h.18v.18c0,4-.07,7.18-.1,9.47,0,1.07,0,1.91,0,2.54A6.84,6.84,0,0,1,129.76,153.24Z" style="fill: rgb(224, 224, 224); transform-origin: 115.25px 146.665px;" id="eliwuchr0gll" class="animable"></path><path d="M76.08,49.45s0-.09,0-.24,0-.39,0-.66c0-.6,0-1.45,0-2.53,0-2.22,0-5.42-.08-9.45l.15.16-48.65.09.25-.25h0v6.53c0,2.15,0,4.27,0,6.34l-.24-.25,34.67.11,10.23.07,2.77,0,.73,0a.72.72,0,0,1,.25,0h-.22l-.7,0-2.71,0-10.18.07-34.84.11h-.24v-.24c0-2.07,0-4.19,0-6.34V36.58h0l.25-.24,48.65.09h.15v.15c0,4.07-.06,7.3-.08,9.54,0,1.07,0,1.9,0,2.5,0,.26,0,.47,0,.63A.85.85,0,0,1,76.08,49.45Z" style="fill: rgb(224, 224, 224); transform-origin: 51.795px 42.945px;" id="el4pry7icsk2m" class="animable"></path><path d="M82.68,36.57a1.1,1.1,0,0,1,0-.24c0-.19,0-.41,0-.68,0-.64,0-1.5,0-2.58,0-2.26-.06-5.45-.1-9.37l.18.18L53.45,24c-.22.22.3-.3.24-.25h0v6.62q0,3.24,0,6.24l-.23-.23,20.91.11,6.09.07,1.64,0,.59,0a3.28,3.28,0,0,1-.53,0l-1.6,0-6,.07-21.07.11h-.24v-.24c0-2,0-4.08,0-6.24V23.71h0c-.06.06.47-.47.25-.24l29.23.07h.18v.17c0,4-.08,7.19-.1,9.48,0,1.06,0,1.91,0,2.54S82.69,36.59,82.68,36.57Z" style="fill: rgb(224, 224, 224); transform-origin: 68.0776px 30.0759px;" id="elaktdfn1hq8o" class="animable"></path><path d="M462,375.36a1.35,1.35,0,0,1,0-.24l0-.66c0-.6,0-1.45,0-2.53,0-2.22,0-5.42-.09-9.45l.16.16-48.65.09.24-.24h0v12.87l-.25-.25,34.67.11,10.24.07,2.77,0,.72,0,.26,0h-.23l-.69,0-2.72,0-10.18.07-34.84.11h-.24V362.49h0l.25-.25,48.65.09h.15v.15c0,4.07-.07,7.3-.09,9.54,0,1.07,0,1.9,0,2.5l0,.63A1.66,1.66,0,0,1,462,375.36Z" style="fill: rgb(224, 224, 224); transform-origin: 437.695px 368.855px;" id="el5im1kswqe8l" class="animable"></path><path d="M468.62,362.48s0-.08,0-.24,0-.41,0-.68c0-.64,0-1.5,0-2.58,0-2.26-.06-5.45-.1-9.37l.18.18-29.23.07.25-.25h0V353c0,1.1,0,2.2,0,3.27v6.24l-.24-.23,20.91.11,6.09.07,1.65,0,.58,0a3.28,3.28,0,0,1-.53,0l-1.59,0-6,.07-21.07.11h-.24v-6.48c0-1.07,0-2.17,0-3.27v-3.35h0c-.05.06.47-.47.25-.24l29.23.07h.18v.17c0,4-.07,7.19-.1,9.48,0,1.07,0,1.91,0,2.54A6.36,6.36,0,0,1,468.62,362.48Z" style="fill: rgb(224, 224, 224); transform-origin: 454.108px 355.941px;" id="elfyrjrutdodh" class="animable"></path><path d="M473.69,249.73s0-.09,0-.24l0-.66c0-.6,0-1.45,0-2.53,0-2.22-.05-5.42-.08-9.44l.15.15L425,237.1c.11-.11-.25.25.25-.24h0v1.63c0,.54,0,1.09,0,1.64v9.58l-.24-.25,34.67.11,10.23.07,2.77,0h.72l.26,0h-.23l-.69,0-2.71,0-10.18.07L425,250h-.25V236.88h0l.25-.25,48.65.09h.15v.16c0,4.06-.06,7.29-.08,9.53,0,1.07,0,1.9,0,2.5v.63A.85.85,0,0,1,473.69,249.73Z" style="fill: rgb(224, 224, 224); transform-origin: 449.275px 243.315px;" id="eld1jwrmav3us" class="animable"></path><path d="M480.29,236.86a.77.77,0,0,1,0-.25c0-.18,0-.41,0-.68,0-.64,0-1.5-.05-2.58,0-2.26-.05-5.45-.09-9.37l.18.18-29.23.07.24-.24h0v6.6c0,2.16,0,4.25,0,6.25l-.24-.24,20.92.11,6.09.07,1.64,0,.59,0a5.12,5.12,0,0,1-.53,0l-1.6,0-6,.07-21.07.11h-.23v-.23c0-2,0-4.09,0-6.25V224h0c-.06,0,.47-.48.25-.25l29.23.07h.18V224c0,4-.07,7.19-.09,9.48,0,1.07,0,1.91-.05,2.54S480.3,236.87,480.29,236.86Z" style="fill: rgb(224, 224, 224); transform-origin: 465.738px 230.324px;" id="elpef3jwrclts" class="animable"></path></g><g id="freepik--Floor--inject-63" class="animable" style="transform-origin: 250px 468.71px;"><path d="M482.83,468.71c0,.14-104.25.26-232.82.26s-232.84-.12-232.84-.26,104.23-.26,232.84-.26S482.83,468.56,482.83,468.71Z" style="fill: rgb(38, 50, 56); transform-origin: 250px 468.71px;" id="elaroim2r9c9b" class="animable"></path></g><g id="freepik--Plant--inject-63" class="animable" style="transform-origin: 75.49px 390.211px;"><path d="M76,437.76s-4.53-31.12-4.15-49.23,0-38.49,0-38.49h2.08S72.45,386,74,407.67s5.58,30.09,5.58,30.09H76" style="fill: rgb(38, 50, 56); transform-origin: 75.7037px 393.9px;" id="el7vtc7kxh4u5" class="animable"></path><path d="M89.43,315a5.47,5.47,0,0,0-1.9-2.78c-1.32-.84-3.06-.49-4.53,0-6.31,2.23-11.89,14-14.44,20.16l8.37,28.2C92,346.62,94.65,328.23,89.43,315Z" style="fill: rgb(69, 90, 100); transform-origin: 80.2204px 336.146px;" id="ele493xvrnj9i" class="animable"></path><path d="M87.05,313.38a2.62,2.62,0,0,1-.13.37c-.1.27-.24.61-.41,1-.36.89-.88,2.18-1.49,3.78-1.24,3.21-2.81,7.68-4.21,12.73s-2.36,9.69-3,13.07c-.3,1.69-.53,3.06-.67,4-.07.44-.13.8-.18,1.09a1.74,1.74,0,0,1-.08.38,1.66,1.66,0,0,1,0-.39c0-.29.07-.65.12-1.1.1-1,.29-2.33.56-4a120,120,0,0,1,2.86-13.13,123.25,123.25,0,0,1,4.31-12.72c.65-1.59,1.2-2.87,1.6-3.74l.47-1C87,313.49,87,313.37,87.05,313.38Z" style="fill: rgb(38, 50, 56); transform-origin: 81.9593px 331.59px;" id="el6gw2b8qiap" class="animable"></path><path d="M73.21,367.39A25.5,25.5,0,0,1,60.31,346c-.3-6.25,1.62-12.39,3.8-18.27a2.33,2.33,0,0,1,.88-1.32,2.22,2.22,0,0,1,2.14.33c5.7,3.24,9.16,9.43,11,15.73a31.54,31.54,0,0,1,1.29,12.93,21.48,21.48,0,0,1-6.2,12" style="fill: rgb(69, 90, 100); transform-origin: 69.9414px 346.835px;" id="elgcibot0mkv5" class="animable"></path><path d="M73.21,367.39a1.82,1.82,0,0,1,0-.37c0-.29,0-.65,0-1.09,0-.94,0-2.3-.12-4a107.67,107.67,0,0,0-1.46-13c-.87-5.05-1.92-9.57-2.7-12.84-.39-1.6-.7-2.91-.93-3.87-.1-.43-.18-.78-.24-1.06a1.71,1.71,0,0,1-.06-.37,2.38,2.38,0,0,1,.13.36l.3,1c.26.91.61,2.22,1,3.85.84,3.26,1.94,7.78,2.81,12.84A95.21,95.21,0,0,1,73.28,362c0,1.68,0,3,0,4,0,.44,0,.8,0,1.09A2.24,2.24,0,0,1,73.21,367.39Z" style="fill: rgb(38, 50, 56); transform-origin: 70.49px 349.09px;" id="el443r56qaf3g" class="animable"></path><g id="eldnkbqnprrq4"><g style="opacity: 0.3; transform-origin: 69.9414px 346.835px;" class="animable"><path d="M73.21,367.39A25.5,25.5,0,0,1,60.31,346c-.3-6.25,1.62-12.39,3.8-18.27a2.33,2.33,0,0,1,.88-1.32,2.22,2.22,0,0,1,2.14.33c5.7,3.24,9.16,9.43,11,15.73a31.54,31.54,0,0,1,1.29,12.93,21.48,21.48,0,0,1-6.2,12" id="eli540gwhu1l" class="animable" style="transform-origin: 69.9414px 346.835px;"></path></g></g><path d="M82.06,415c7.72,1.7,14.07,7.14,21.52,9.79,4.93,1.75,10.5,2.37,14.44,5.82-1-2.39-3.18-4-5.36-5.33A95.77,95.77,0,0,0,93.15,416c-3.5-1.21-7.3-2.22-10.88-1.22" style="fill: rgb(69, 90, 100); transform-origin: 100.04px 422.491px;" id="elwrcmhwldcqi" class="animable"></path><path d="M70.9,421.9c-9.67-.16-19.85-8.39-29.48-8.88,10.07-3.25,24.49-.6,29.48,8.88" style="fill: rgb(69, 90, 100); transform-origin: 56.16px 416.798px;" id="el9kdrmnsl7rf" class="animable"></path><path d="M74.67,398.7a31.49,31.49,0,0,1,15.46-1.05,94.32,94.32,0,0,1,15.09,4.1c-.5-3.35-3.21-5.87-5.76-8.11A40.46,40.46,0,0,0,93.4,389a13.48,13.48,0,0,0-7.27-2.05,11.47,11.47,0,0,0-8,4,13.31,13.31,0,0,0-3.44,7.72" style="fill: rgb(69, 90, 100); transform-origin: 89.945px 394.35px;" id="ell70l61yrulf" class="animable"></path><path d="M54.83,388c-6.09-5.2-15.31-4.69-23.31-4.51A189.8,189.8,0,0,1,67.67,406C68,400.39,62.52,394.59,54.83,388Z" style="fill: rgb(69, 90, 100); transform-origin: 49.6021px 394.693px;" id="elgxatyruwq5e" class="animable"></path><g id="el60kebbym3bw"><g style="opacity: 0.3; transform-origin: 49.6021px 394.693px;" class="animable"><path d="M54.83,388c-6.09-5.2-15.31-4.69-23.31-4.51A189.8,189.8,0,0,1,67.67,406C68,400.39,62.52,394.59,54.83,388Z" id="el9pyzkyswvum" class="animable" style="transform-origin: 49.6021px 394.693px;"></path></g></g><path d="M77.41,380.86a67.4,67.4,0,0,1,9.36-5.44C90,374,93,371.64,96.06,370c4-2.18,7.48-5.2,11.17-7.89s7.72-5.12,12.23-5.84a24.14,24.14,0,0,0-11.13.65A72.12,72.12,0,0,0,97.85,361c-4.75,2.14-9.58,4.33-13.46,7.81s-7.39,6.89-7,12.09" style="fill: rgb(69, 90, 100); transform-origin: 98.4101px 368.401px;" id="elcusu4p2l70a" class="animable"></path><path d="M103.41,421.9a1.56,1.56,0,0,1-.31-.13l-.84-.44c-.73-.39-1.78-1-3.09-1.62-.65-.35-1.38-.71-2.16-1.08s-1.62-.76-2.51-1.15a37.66,37.66,0,0,0-6-2.07,12.88,12.88,0,0,0-6.21-.16,18,18,0,0,0-2.62.79,13.23,13.23,0,0,0-2.13,1.09,13.57,13.57,0,0,0-2.66,2.2c-.56.6-.83,1-.86.95a1.12,1.12,0,0,1,.17-.29c.13-.18.32-.43.59-.75a12.35,12.35,0,0,1,2.63-2.32,13.1,13.1,0,0,1,2.15-1.15,17.3,17.3,0,0,1,2.66-.83,12.94,12.94,0,0,1,6.35.13,36.08,36.08,0,0,1,6,2.12c.89.4,1.73.79,2.5,1.19s1.5.75,2.15,1.11c1.31.69,2.33,1.3,3,1.72l.81.5A1.24,1.24,0,0,1,103.41,421.9Z" style="fill: rgb(38, 50, 56); transform-origin: 88.715px 418.253px;" id="elrg5izgpnwa" class="animable"></path><path d="M63.68,417.11a1.91,1.91,0,0,1,.61.17,14.72,14.72,0,0,1,1.57.69,19.06,19.06,0,0,1,8.08,7.76,14.52,14.52,0,0,1,.75,1.55,2.22,2.22,0,0,1,.2.59s-.42-.79-1.16-2a21.49,21.49,0,0,0-8-7.67C64.49,417.49,63.66,417.16,63.68,417.11Z" style="fill: rgb(38, 50, 56); transform-origin: 69.2848px 422.49px;" id="elc4jzhi976zw" class="animable"></path><path d="M42.29,387.54a1.64,1.64,0,0,1,.41.13l1.16.41,1.83.67c.72.27,1.49.66,2.37,1.05a55.67,55.67,0,0,1,12.58,8,60.9,60.9,0,0,1,5.87,5.79,63.52,63.52,0,0,1,4.17,5.27c1.1,1.57,1.94,2.87,2.51,3.77l.67,1a1.79,1.79,0,0,1,.21.37,2.11,2.11,0,0,1-.27-.33l-.72-1c-.61-.88-1.47-2.16-2.6-3.7s-2.54-3.32-4.2-5.21a65.41,65.41,0,0,0-5.86-5.73A58.87,58.87,0,0,0,48,390c-.86-.4-1.63-.81-2.33-1.09l-1.8-.73-1.14-.47A2,2,0,0,1,42.29,387.54Z" style="fill: rgb(38, 50, 56); transform-origin: 58.18px 400.77px;" id="elm7fpd5t3s7r" class="animable"></path><path d="M89.18,393.27a3.31,3.31,0,0,1-.77-.1l-.89-.16c-.34-.07-.75-.07-1.19-.12a12.23,12.23,0,0,0-6.64,1.31,12,12,0,0,0-3,2.25,13.53,13.53,0,0,0-2,2.4,20.46,20.46,0,0,0-1.33,2.54,2.93,2.93,0,0,1,.2-.76,11.6,11.6,0,0,1,.92-1.91,13.18,13.18,0,0,1,1.93-2.5,11.64,11.64,0,0,1,3.09-2.32,11.76,11.76,0,0,1,6.82-1.25,10.81,10.81,0,0,1,1.2.17l.89.22A3.8,3.8,0,0,1,89.18,393.27Z" style="fill: rgb(38, 50, 56); transform-origin: 81.27px 396.979px;" id="elzzmb31zns7" class="animable"></path><path d="M98.9,363.12a2.25,2.25,0,0,1-.37.23l-1.08.59c-.93.5-2.28,1.25-3.92,2.21s-3.56,2.18-5.61,3.65A46.2,46.2,0,0,0,81.67,375a15.57,15.57,0,0,0-2.56,3.31c-.63,1.21-1.24,2.39-1.79,3.52A63.88,63.88,0,0,0,74.63,388a40.33,40.33,0,0,0-1.31,4.31c-.24,1-.33,1.62-.37,1.61a3.4,3.4,0,0,1,0-.43c0-.27.1-.69.2-1.21a33.25,33.25,0,0,1,1.21-4.36A60.21,60.21,0,0,1,77,381.73c.55-1.14,1.15-2.32,1.78-3.54a16.16,16.16,0,0,1,2.61-3.39,45.26,45.26,0,0,1,6.32-5.26c2.07-1.46,4-2.64,5.66-3.6s3-1.65,4-2.12l1.11-.53A2.21,2.21,0,0,1,98.9,363.12Z" style="fill: rgb(38, 50, 56); transform-origin: 85.9216px 378.52px;" id="elcqu9qth30jg" class="animable"></path><path d="M71.79,392.4a3.86,3.86,0,0,1-.2-.82c-.11-.59-.25-1.34-.42-2.23a63.5,63.5,0,0,0-1.83-7.26,64.31,64.31,0,0,0-2.76-6.95c-.37-.83-.69-1.52-.94-2.07a4,4,0,0,1-.31-.78,4.52,4.52,0,0,1,.43.72c.26.47.62,1.16,1,2a47.76,47.76,0,0,1,4.61,14.28c.15.95.26,1.72.32,2.25A4.39,4.39,0,0,1,71.79,392.4Z" style="fill: rgb(38, 50, 56); transform-origin: 68.56px 382.345px;" id="eljhpfxww3v8h" class="animable"></path><path d="M71.09,370.4A26.43,26.43,0,0,0,67.94,360a34.43,34.43,0,0,0-23.35-17.41l21.62,32.22L69,380.53A16.55,16.55,0,0,0,71.09,370.4Z" style="fill: rgb(69, 90, 100); transform-origin: 57.894px 361.56px;" id="el9y1whrpbynb" class="animable"></path><rect x="51.82" y="433.91" width="50.28" height="8.91" style="fill: rgb(255, 193, 0); transform-origin: 76.96px 438.365px;" id="elefp8707f9cg" class="animable"></rect><polygon points="55.58 441.06 59.86 468.71 93.24 468.71 98.35 441.06 55.58 441.06" style="fill: rgb(255, 193, 0); transform-origin: 76.965px 454.885px;" id="elehuz9uxlkw8" class="animable"></polygon><path d="M102.08,442.84c0,.09-11.35.17-25.33.17s-25.33-.08-25.33-.17,11.34-.18,25.33-.18S102.08,442.74,102.08,442.84Z" style="fill: rgb(38, 50, 56); transform-origin: 76.75px 442.835px;" id="el5qrvohtl46g" class="animable"></path></g><g id="freepik--barber-pole--inject-63" class="animable" style="transform-origin: 67.6251px 130.17px;"><rect x="46.02" y="65.22" width="43.25" height="135.32" style="fill: rgb(255, 255, 255); transform-origin: 67.645px 132.88px;" id="elfl1mirvo4g5" class="animable"></rect><polygon points="46.02 116.5 89.27 75.79 89.27 65.22 79.59 65.22 46.02 97.58 46.02 116.5" style="fill: rgb(255, 193, 0); transform-origin: 67.645px 90.86px;" id="el43nqb48d4qj" class="animable"></polygon><polygon points="46.02 86.05 68.14 65.22 47.62 65.22 46.02 66.77 46.02 86.05" style="fill: rgb(69, 90, 100); transform-origin: 57.08px 75.635px;" id="elhglp9blzxml" class="animable"></polygon><polygon points="89.27 115.48 46.02 157.17 46.02 176.1 89.27 135.38 89.27 115.48" style="fill: rgb(255, 193, 0); transform-origin: 67.645px 145.79px;" id="elxh8zuy9azx" class="animable"></polygon><polygon points="46.02 127.6 46.02 146.52 89.27 105.8 89.27 85.91 46.02 127.6" style="fill: rgb(69, 90, 100); transform-origin: 67.645px 116.215px;" id="el31ue2ggumfr" class="animable"></polygon><polygon points="89.27 147.93 46.02 189.62 46.02 200.54 54.52 200.54 89.27 167.83 89.27 147.93" style="fill: rgb(69, 90, 100); transform-origin: 67.645px 174.235px;" id="elw1pff9vfhb" class="animable"></polygon><polygon points="89.27 179 66.92 200.54 87.14 200.54 89.27 198.54 89.27 179" style="fill: rgb(255, 193, 0); transform-origin: 78.095px 189.77px;" id="el5lodk6vhgpk" class="animable"></polygon><path d="M89.27,200.54s0-.23,0-.68,0-1.11,0-2c0-1.75,0-4.3,0-7.61,0-6.62,0-16.24-.07-28.3,0-24.09-.07-57.89-.11-96.76l.25.25H46l.26-.26c0,54.43-.07,103.16-.09,135.32l-.17-.17,31.77.1,8.51,0h2.21l.76,0-.73,0-2.17,0-8.48,0L46,200.71h-.17v-.17c0-32.16-.05-80.89-.09-135.32V65H89.52v.25c0,38.94-.09,72.8-.12,96.94,0,12-.05,21.63-.07,28.24,0,3.28,0,5.82,0,7.55,0,.85,0,1.49,0,1.94S89.27,200.54,89.27,200.54Z" style="fill: rgb(38, 50, 56); transform-origin: 67.63px 132.855px;" id="elec6wux5hzvh" class="animable"></path><path d="M44,195.09h47.2a3.26,3.26,0,0,1,3.26,3.25h0a3.26,3.26,0,0,1-3.26,3.26H44a3.25,3.25,0,0,1-3.25-3.26h0A3.25,3.25,0,0,1,44,195.09Z" style="fill: rgb(255, 193, 0); transform-origin: 67.605px 198.345px;" id="eltuovto4zdv" class="animable"></path><path d="M67.64,218.34a21.62,21.62,0,0,0,21.63-21.62H46A21.62,21.62,0,0,0,67.64,218.34Z" style="fill: rgb(255, 193, 0); transform-origin: 67.635px 207.53px;" id="elaes3f9as8a5" class="animable"></path><path d="M91.42,195.25c0,.14-10.58.26-23.63.26s-23.64-.12-23.64-.26S54.73,195,67.79,195,91.42,195.11,91.42,195.25Z" style="fill: rgb(38, 50, 56); transform-origin: 67.785px 195.255px;" id="elvc2xed2wllp" class="animable"></path><path d="M91.42,201.6c0,.15-10.58.26-23.63.26s-23.64-.11-23.64-.26,10.58-.26,23.64-.26S91.42,201.46,91.42,201.6Z" style="fill: rgb(38, 50, 56); transform-origin: 67.785px 201.6px;" id="elag46cpyb0ii" class="animable"></path><g id="el3amidm09e9z"><g style="opacity: 0.3; transform-origin: 81.115px 125.01px;" class="animable"><rect x="78.09" y="71.02" width="6.05" height="107.98" rx="2" style="fill: rgb(255, 255, 255); transform-origin: 81.115px 125.01px;" id="elzg1rmr0hkrs" class="animable"></rect></g></g><path d="M91.24,65.22H44A3.25,3.25,0,0,1,40.79,62h0A3.25,3.25,0,0,1,44,58.71h47.2A3.26,3.26,0,0,1,94.5,62h0A3.26,3.26,0,0,1,91.24,65.22Z" style="fill: rgb(255, 193, 0); transform-origin: 67.6449px 61.9649px;" id="el1clmm9jawvd" class="animable"></path><path d="M67.64,42A21.62,21.62,0,0,0,46,63.59H89.27A21.62,21.62,0,0,0,67.64,42Z" style="fill: rgb(255, 193, 0); transform-origin: 67.635px 52.795px;" id="elrc0ot8r20dd" class="animable"></path><path d="M91.42,58.87c0,.14-10.58.26-23.63.26S44.15,59,44.15,58.87s10.58-.26,23.64-.26S91.42,58.72,91.42,58.87Z" style="fill: rgb(38, 50, 56); transform-origin: 67.785px 58.87px;" id="el8o7x68qor87" class="animable"></path><path d="M91.42,65.22c0,.14-10.58.26-23.63.26s-23.64-.12-23.64-.26S54.73,65,67.79,65,91.42,65.08,91.42,65.22Z" style="fill: rgb(38, 50, 56); transform-origin: 67.785px 65.24px;" id="el0hw7cr3iwcuf" class="animable"></path></g><g id="freepik--Mirror--inject-63" class="animable" style="transform-origin: 228.135px 159.965px;"><rect x="122.15" y="43.87" width="211.97" height="232.19" style="fill: rgb(111, 68, 57); transform-origin: 228.135px 159.965px;" id="eld6qct2fk57" class="animable"></rect><rect x="126.46" y="47.15" width="203.36" height="225.63" style="fill: rgb(250, 250, 250); transform-origin: 228.14px 159.965px;" id="eltun3qpxukf" class="animable"></rect><path d="M126.39,174.33s77.85-3,87.15,3.17S238,264,238,264s91.68-2.2,91.68,0v9.19H126.36Z" style="fill: rgb(224, 224, 224); transform-origin: 228.02px 223.395px;" id="elqw202ryn65" class="animable"></path><path d="M272.25,126.56c.1.1-21.47,21.84-48.18,48.55s-48.46,48.29-48.56,48.19S197,201.46,223.7,174.74,272.15,126.46,272.25,126.56Z" style="fill: rgb(38, 50, 56); transform-origin: 223.88px 174.93px;" id="elnseu6z7cl4l" class="animable"></path><path d="M275.63,102.2c.1.11-10.26,10.64-23.15,23.53S229.06,149,229,148.88s10.27-10.63,23.16-23.52S275.53,102.1,275.63,102.2Z" style="fill: rgb(38, 50, 56); transform-origin: 252.315px 125.54px;" id="elaw25yg3168f" class="animable"></path><g id="elyhpk983dnxs"><g style="opacity: 0.5; transform-origin: 183px 120.825px;" class="animable"><path d="M132.35,51.44l1.15,138.77s55.88-11.76,69.7-32.94,30.45-105,30.45-105Z" style="fill: rgb(255, 255, 255); transform-origin: 183px 120.825px;" id="elsfzz3jcwgwd" class="animable"></path></g></g><path d="M218,94.08c.1.1-10.27,10.63-23.15,23.52s-23.43,23.26-23.53,23.16,10.27-10.64,23.16-23.53S217.93,94,218,94.08Z" style="fill: rgb(38, 50, 56); transform-origin: 194.66px 117.42px;" id="eldvmksiy96z" class="animable"></path><path d="M229,191.5c.11.1-10,10.33-22.47,22.85s-22.75,22.58-22.85,22.48,10-10.33,22.48-22.85S228.85,191.4,229,191.5Z" style="fill: rgb(38, 50, 56); transform-origin: 206.34px 214.165px;" id="elca9721zy9a" class="animable"></path></g><g id="freepik--Chair--inject-63" class="animable animator-active" style="transform-origin: 215.643px 338.11px;"><path d="M295.69,364.13H250.18l-18.29-50.24h72.62Zm-44.81-1h44l8.47-48.24h-70Z" style="fill: rgb(224, 224, 224); transform-origin: 268.2px 339.01px;" id="elodu02mtwokc" class="animable"></path><path d="M307,314.39H228.14v-8.9a6.73,6.73,0,0,1,6.73-6.73h65.41a6.73,6.73,0,0,1,6.73,6.73Z" style="fill: rgb(255, 193, 0); transform-origin: 267.575px 306.575px;" id="elryicw3qargg" class="animable"></path><path d="M307,314.39s0-.17,0-.49,0-.8,0-1.4c0-1.24,0-3-.06-5.32a11.66,11.66,0,0,0-.36-3.77,6.59,6.59,0,0,0-5-4.38,14.76,14.76,0,0,0-2.69-.11l-5.91,0L263.8,299H235.19a7.26,7.26,0,0,0-2.23.28,6.6,6.6,0,0,0-3.53,2.69,6.49,6.49,0,0,0-1,2.94c-.06,1,0,2.14,0,3.19v6.27l-.26-.26,56.08.12,16.68.07,4.52,0h1.18l.41,0a2.45,2.45,0,0,1-.38,0l-1.14,0-4.46,0-16.62.08-56.27.11h-.26v-6.53c0-1.07,0-2.11,0-3.24a7,7,0,0,1,4.9-6.07,7.46,7.46,0,0,1,2.38-.31h11.42l17.19,0,29.12.05,5.91,0a14.79,14.79,0,0,1,2.75.14,6.7,6.7,0,0,1,2.4,1,6.91,6.91,0,0,1,2.81,3.63,11.75,11.75,0,0,1,.32,3.87c0,2.31,0,4.11-.05,5.36,0,.59,0,1,0,1.38A3.82,3.82,0,0,1,307,314.39Z" style="fill: rgb(38, 50, 56); transform-origin: 267.53px 306.413px;" id="elevhp587hdmh" class="animable"></path><path d="M151.43,344,124.59,228.74a17.45,17.45,0,0,1,17-21.41h59.61a23.18,23.18,0,0,1,22.61,18.12L250.31,344Z" style="fill: rgb(255, 193, 0); transform-origin: 187.222px 275.665px;" id="eld5jikv1346a" class="animable"></path><path d="M201.05,374c.59-1.16,0,77.69,0,77.69l-44.51,11.34v5.82h79.27V374Z" style="fill: rgb(224, 224, 224); transform-origin: 196.175px 421.419px;" id="elwnni99thadg" class="animable"></path><path d="M257.36,374c-.58-1.16,0,77.69,0,77.69l44.52,11.34v5.82H222.61V374Z" style="fill: rgb(224, 224, 224); transform-origin: 262.245px 421.419px;" id="elzaz0vmsgmje" class="animable"></path><path d="M151.43,343.95H295A11.94,11.94,0,0,1,307,355.89v7.75a0,0,0,0,1,0,0H151.43a0,0,0,0,1,0,0V343.95a0,0,0,0,1,0,0Z" style="fill: rgb(255, 193, 0); transform-origin: 229.215px 353.795px;" id="elpv2l3pf5o0c" class="animable"></path><g id="elk1hss3uqbzm"><g style="opacity: 0.3; transform-origin: 177.32px 353.175px;" class="animable"><rect x="151.21" y="342.86" width="52.22" height="20.63" rx="0.8" id="ell7yhfp69fc" class="animable" style="transform-origin: 177.32px 353.175px;"></rect></g></g><polygon points="151.43 363.63 201.05 374.04 257.36 374.04 306.99 363.63 151.43 363.63" style="fill: rgb(224, 224, 224); transform-origin: 229.21px 368.835px;" id="elzzojprslqfd" class="animable"></polygon><path d="M256.47,374.19c0,.14-12.41.22-27.71.18s-27.71-.18-27.71-.33,12.41-.23,27.71-.19S256.47,374,256.47,374.19Z" style="fill: rgb(38, 50, 56); transform-origin: 228.76px 374.11px;" id="ellszr8hubtcg" class="animable"></path><path d="M156.08,343c0-.14,21.2-.26,47.34-.26s47.35.12,47.35.26-21.2.26-47.35.26S156.08,343.15,156.08,343Z" style="fill: rgb(38, 50, 56); transform-origin: 203.425px 343px;" id="eltr9x223mgf" class="animable"></path><g id="elvaxjdv6ln7k"><g style="opacity: 0.3; transform-origin: 246.965px 306.575px;" class="animable"><polygon points="240.2 298.76 243.7 314.39 253.73 314.39 250.77 298.76 240.2 298.76" id="elrb051obzy2" class="animable" style="transform-origin: 246.965px 306.575px;"></polygon></g></g><g id="el10hyz1k18au"><g style="opacity: 0.3; transform-origin: 146.317px 275.455px;" class="animable"><path d="M138.3,207.91h0c-9.59.26-15.9,11.49-13.71,20.83L151.21,343h17.27Z" id="el4bu8yuc8g" class="animable" style="transform-origin: 146.317px 275.455px;"></path></g></g><path d="M196.59,364.13H151.08l-18.29-50.24h72.62Zm-44.81-1h44l8.47-48.24h-70Z" style="fill: rgb(224, 224, 224); transform-origin: 169.1px 339.01px;" id="elkhzynryzv2q" class="animable"></path><path d="M207.91,314.39H129v-8.9a6.73,6.73,0,0,1,6.74-6.73h65.4a6.73,6.73,0,0,1,6.73,6.73Z" style="fill: rgb(255, 193, 0); transform-origin: 168.455px 306.575px;" id="el1bqjomm3odh" class="animable"></path><path d="M207.91,314.39s0-.17,0-.49,0-.8,0-1.4c0-1.24,0-3-.06-5.32a11.66,11.66,0,0,0-.36-3.77,6.59,6.59,0,0,0-5-4.38,14.69,14.69,0,0,0-2.68-.11l-5.92,0L164.7,299H136.09a7.2,7.2,0,0,0-2.22.28,6.59,6.59,0,0,0-3.54,2.69,6.49,6.49,0,0,0-1,2.94c-.06,1,0,2.14,0,3.19v6.27l-.26-.26,56.08.12,16.69.07,4.51,0h1.18l.41,0a2.37,2.37,0,0,1-.37,0l-1.15,0-4.46,0-16.62.08-56.27.11h-.26v-6.53c0-1.07,0-2.11,0-3.24a7,7,0,0,1,4.9-6.07,7.5,7.5,0,0,1,2.38-.31h11.42l17.19,0,29.12.05,5.92,0a14.72,14.72,0,0,1,2.74.14,6.7,6.7,0,0,1,2.4,1,6.91,6.91,0,0,1,2.81,3.63,12.05,12.05,0,0,1,.33,3.87c0,2.31-.05,4.11-.06,5.36,0,.59,0,1,0,1.38A3.82,3.82,0,0,1,207.91,314.39Z" style="fill: rgb(38, 50, 56); transform-origin: 168.433px 306.413px;" id="elaocgrwa5vs6" class="animable"></path><path d="M258.19,451.71c0,.14-12.83.26-28.65.26s-28.65-.12-28.65-.26,12.83-.26,28.65-.26S258.19,451.56,258.19,451.71Z" style="fill: rgb(38, 50, 56); transform-origin: 229.54px 451.71px;" id="ele5dkeevobd9" class="animable"></path><g id="elwst8kxrbdl"><g style="opacity: 0.3; transform-origin: 228.987px 412.003px;" class="animable"><path d="M203.29,375.81s-.91,71.75,2.9,72.38,8.51-53.89,24.91-62.86a119.41,119.41,0,0,1,23.68-9.52Z" id="elg4bmvgvcqan" class="animable" style="transform-origin: 228.987px 412.003px;"></path></g></g><g id="elgul6nh94cvp"><g style="opacity: 0.3; transform-origin: 229.21px 465.98px;" class="animable"><rect x="156.54" y="463.07" width="145.34" height="5.82" id="el10diz1f9qmsr" class="animable" style="transform-origin: 229.21px 465.98px;"></rect></g></g><g id="elnt8im7rxn0n"><g style="opacity: 0.3; transform-origin: 198.588px 456.13px;" class="animable"><path d="M182.59,459l22.81-7.26h9.72l-5.94,7.21a4.33,4.33,0,0,1-3.34,1.57h-23A.78.78,0,0,1,182.59,459Z" id="elr8txzw3t6d" class="animable" style="transform-origin: 198.588px 456.13px;"></path></g></g></g><g id="freepik--Character--inject-63" class="animable" style="transform-origin: 355.856px 286.423px;"><path d="M389.05,91.79l-1,0a19.85,19.85,0,0,0-19.42,18.66c-.58,9.6-1.1,20.23-.93,25.37.35,10.65,11,12.09,11,12.09l-.64,12.82,9.46,8.08,16.38-9.4L405.26,113C406,101.87,400.15,92.21,389.05,91.79Z" style="fill: rgb(255, 191, 157); transform-origin: 386.495px 130.3px;" id="elbazdjiu34hf" class="animable"></path><path d="M378.72,147.93a25.74,25.74,0,0,0,13.79-4.38s-3.28,7.76-13.93,7Z" style="fill: rgb(255, 154, 108); transform-origin: 385.545px 147.076px;" id="elynpevz3k6g" class="animable"></path><path d="M369.53,105.56s2.68-6.73,5.86-8.35c3.86-2,5.62,2.28,9.31,1.16s2.36,2.52,7.81,1c3.78-1.07,2,4.35,3.84,8.13,1.78,3.62,4.08,5.61,4.27,7.21,1.78,15,.53,11,3.83,8.94.84-.53,2.81-1.84,3.14-6,.41-5.43.49-12-.8-15.84-1.08-3.22-3-5.42-6.34-7.82-5.31-3.79-12.5-3.73-17.37-3.14S368.92,97.22,369.53,105.56Z" style="fill: rgb(38, 50, 56); transform-origin: 388.679px 108.136px;" id="el16urs0ni0zh" class="animable"></path><path d="M403.76,123.36a2.89,2.89,0,0,1,3.07-2.85c2,.15,4.22,1.23,4.17,5.34-.08,7.29-7.38,5.7-7.39,5.49S403.7,126.41,403.76,123.36Z" style="fill: rgb(255, 191, 157); transform-origin: 407.305px 126.067px;" id="elqufpbg1k6b" class="animable"></path><path d="M405.23,128.62s.12.09.34.19a1.23,1.23,0,0,0,.94,0A3.12,3.12,0,0,0,408,126a4.08,4.08,0,0,0-.33-1.82,1.47,1.47,0,0,0-.95-1,.65.65,0,0,0-.75.34c-.1.2-.06.35-.09.36s-.16-.12-.1-.42a.81.81,0,0,1,.29-.46.94.94,0,0,1,.71-.17,1.76,1.76,0,0,1,1.31,1.14,4.34,4.34,0,0,1,.42,2c-.07,1.47-.83,2.83-1.89,3.12a1.38,1.38,0,0,1-1.16-.2C405.24,128.79,405.2,128.63,405.23,128.62Z" style="fill: rgb(255, 154, 108); transform-origin: 406.867px 125.979px;" id="elnv2c56ihb9" class="animable"></path><path d="M372.74,120.47a1.51,1.51,0,0,0,1.51,1.48,1.46,1.46,0,0,0,1.53-1.41,1.53,1.53,0,0,0-1.51-1.49A1.46,1.46,0,0,0,372.74,120.47Z" style="fill: rgb(38, 50, 56); transform-origin: 374.26px 120.5px;" id="elrx0cm5a9lq" class="animable"></path><path d="M370,115.53c.19.19,1.32-.7,2.95-.74s2.86.73,3,.53-.12-.45-.65-.81a4.25,4.25,0,0,0-2.43-.67,4,4,0,0,0-2.35.84C370.1,115.08,369.94,115.44,370,115.53Z" style="fill: rgb(38, 50, 56); transform-origin: 372.988px 114.697px;" id="el1ldg55bjclx" class="animable"></path><path d="M387.54,120.47a1.5,1.5,0,0,0,1.51,1.48,1.45,1.45,0,0,0,1.52-1.41,1.52,1.52,0,0,0-1.51-1.49A1.45,1.45,0,0,0,387.54,120.47Z" style="fill: rgb(38, 50, 56); transform-origin: 389.055px 120.5px;" id="el5kuydvy5u75" class="animable"></path><path d="M386.07,115.41c.19.2,1.32-.69,2.95-.74s2.86.74,3,.53-.12-.44-.66-.8a4.06,4.06,0,0,0-2.43-.67,4,4,0,0,0-2.34.83C386.13,115,386,115.33,386.07,115.41Z" style="fill: rgb(38, 50, 56); transform-origin: 389.055px 114.582px;" id="el25vyvn4f8wj" class="animable"></path><path d="M380.59,128.15a10.22,10.22,0,0,0-2.67-.4c-.41,0-.81-.1-.89-.38a2.09,2.09,0,0,1,.24-1.25l1.14-3.21c1.57-4.58,2.7-8.34,2.51-8.4s-1.61,3.6-3.18,8.17c-.38,1.13-.74,2.21-1.09,3.24a2.38,2.38,0,0,0-.16,1.64,1,1,0,0,0,.7.59,3.27,3.27,0,0,0,.71.08A11.27,11.27,0,0,0,380.59,128.15Z" style="fill: rgb(38, 50, 56); transform-origin: 378.677px 121.392px;" id="elpax8fyqq79e" class="animable"></path><path d="M384.94,109.8c.2.43,1.81.06,3.74.11s3.52.42,3.74,0c.09-.2-.21-.59-.88-1a6.23,6.23,0,0,0-2.84-.7,6.16,6.16,0,0,0-2.86.62C385.17,109.21,384.85,109.6,384.94,109.8Z" style="fill: rgb(38, 50, 56); transform-origin: 388.68px 109.158px;" id="el8h8zhqfxqks" class="animable"></path><path d="M370.91,109.43c.25.41,1.49.2,2.92.38s2.6.63,2.94.28c.15-.17,0-.56-.47-1a4.26,4.26,0,0,0-2.29-.94,4.21,4.21,0,0,0-2.43.41C371,108.88,370.8,109.23,370.91,109.43Z" style="fill: rgb(38, 50, 56); transform-origin: 373.854px 109.167px;" id="el2jaw6kwogrp" class="animable"></path><path d="M396.35,98.05c-2.41-6.59-5.41-9.75-8-11.13s-11.67-.23-14.48.69-3.8,4.72-4.49,7.59c-.43,1.83-.25,3.89-1.36,5.4a22.36,22.36,0,0,1-2.56,2.29c-1.45,1.41-1.77-1.29-1.22.65s2.15,7.77,4.28,8.76c.35-4.18.78-6.76,2.49-9.85,1-1.83,1.77-4.21,3.7-5,4-1.66,9.12,2.39,11.8,3.89" style="fill: rgb(38, 50, 56); transform-origin: 380.168px 99.2906px;" id="elk2x0175d1" class="animable"></path><path d="M392.46,91c6-1,11.09-1,14.85,3.17a12.25,12.25,0,0,1,3.42,7.12c.25,2.5.89,6,.27,9.16a2.77,2.77,0,0,1-1,1.38c-.65.21-1.24-.36-1.67-.82s-1.25-.91-1.75-.5" style="fill: rgb(38, 50, 56); transform-origin: 401.861px 101.163px;" id="elmphweno3dsb" class="animable"></path><path d="M360.81,98.39c1.52-2.35,3.62-4.43,5.61-7,2.28-2.9,6.14-5,9.62-6.21a15.3,15.3,0,0,1,11,.77c3.32,1.53,5.91,4.92,7.22,8.33l-7.79,7A32.3,32.3,0,0,0,380.71,98a7.1,7.1,0,0,0-10,3,23.19,23.19,0,0,0-2.15,5.51c-1.81-1.13-5.19-3-7-4.17a3.17,3.17,0,0,1-1.47-1.47A3.09,3.09,0,0,1,360.81,98.39Z" style="fill: rgb(38, 50, 56); transform-origin: 377.158px 95.5061px;" id="elkmlqms981pg" class="animable"></path><path d="M372.07,100.33a10.91,10.91,0,0,1,2.05-2.52,25,25,0,0,1,2.63-2.37,7.61,7.61,0,0,1,4.05-1.67,5,5,0,0,1,4.12,1.45,6.78,6.78,0,0,1,1.63,3.18,13.7,13.7,0,0,1,.34,2.37,2.94,2.94,0,0,1,0,.87c-.1,0-.18-1.24-.69-3.14a6.82,6.82,0,0,0-1.62-2.94,4.55,4.55,0,0,0-3.73-1.27,7.44,7.44,0,0,0-3.8,1.54,30.94,30.94,0,0,0-2.66,2.25C372.93,99.44,372.13,100.37,372.07,100.33Z" style="fill: rgb(69, 90, 100); transform-origin: 379.496px 97.6889px;" id="elwortakevoum" class="animable"></path><path d="M391.07,89.18a9,9,0,0,1,2.84,4.61,9.09,9.09,0,0,1,.21,5.42,24.67,24.67,0,0,0-.71-5.26A23.79,23.79,0,0,0,391.07,89.18Z" style="fill: rgb(69, 90, 100); transform-origin: 392.753px 94.195px;" id="elc8nrk7eq5du" class="animable"></path><path d="M369.84,96.23a4.82,4.82,0,0,1,.54-1,20,20,0,0,1,1.84-2.46,14.08,14.08,0,0,1,3.49-3,9.91,9.91,0,0,1,5.42-1.45,9.25,9.25,0,0,1,5.25,2,10,10,0,0,1,2.84,3.6,10.79,10.79,0,0,1,.91,2.94A3.47,3.47,0,0,1,390.2,98a17.82,17.82,0,0,0-1.31-3.91,10.25,10.25,0,0,0-2.81-3.38,9,9,0,0,0-5-1.85A9.69,9.69,0,0,0,376,90.24,14.88,14.88,0,0,0,372.49,93C370.77,94.91,369.93,96.29,369.84,96.23Z" style="fill: rgb(69, 90, 100); transform-origin: 380.029px 93.1584px;" id="eld9bzb1nn7r" class="animable"></path><path d="M398.28,107.37a26.83,26.83,0,0,0,4.65,4.06,3.56,3.56,0,0,0,2.09.77,2.3,2.3,0,0,0,1.48-1c.64-.88.87-1.58,1-1.53a3.61,3.61,0,0,1-.65,1.75,2.59,2.59,0,0,1-1.73,1.21,3.82,3.82,0,0,1-2.43-.8A11.21,11.21,0,0,1,398.28,107.37Z" style="fill: rgb(69, 90, 100); transform-origin: 402.89px 110.001px;" id="el56etioe678p" class="animable"></path><path d="M387,130c-.27,0-.54,1.4-1.75,2.51s-2.64,1.32-2.64,1.59.39.26,1,.18a4.24,4.24,0,0,0,2.28-1.09,4.05,4.05,0,0,0,1.22-2.18C387.27,130.42,387.15,130.05,387,130Z" style="fill: rgb(38, 50, 56); transform-origin: 384.898px 132.165px;" id="elz14jq63iju" class="animable"></path><path d="M369.32,105.31c.05,0,.05.58-.71,1a1.38,1.38,0,0,1-1.43-.1,1.6,1.6,0,0,1-.61-1.73l.22.32a8.91,8.91,0,0,1-1.83-.32,8.8,8.8,0,0,1-3.71-2.14,3.62,3.62,0,0,1-1.06-1.43c.07,0,.48.48,1.3,1.15A10.14,10.14,0,0,0,365.1,104a9.44,9.44,0,0,0,1.72.33l.32,0-.1.29a1.16,1.16,0,0,0,.39,1.24,1.09,1.09,0,0,0,1.06.16C369.14,105.76,369.26,105.28,369.32,105.31Z" style="fill: rgb(69, 90, 100); transform-origin: 364.764px 103.687px;" id="elv0l7y95qid" class="animable"></path><path d="M367.42,130.06a2.32,2.32,0,0,1,3.4,1.13,2.86,2.86,0,0,1,5.08.88,2.35,2.35,0,0,1,3.92-.67,1.85,1.85,0,0,1,2-.8,1.81,1.81,0,0,1,3-1.61,3,3,0,0,1,4.38-.73,1.64,1.64,0,0,1,3.17.12,2.66,2.66,0,0,1,3.07-.8,1.78,1.78,0,0,1,2.21-1.63c-.25-.91,2.16-1,2.16-1s.1-1.68.43-1.94.9-.32,1.12,0a1.56,1.56,0,0,1,1-1.79,1.57,1.57,0,0,1,1.88.8,4.67,4.67,0,0,1,.24,1.29c.21,1.42,1,3.09,0,4.08-.18.18-.42.32-.5.56-.13.41.27.8.3,1.23s-.42.88-.62,1.33a4.51,4.51,0,0,0,0,2.19c.06.74-.36,1.67-1.1,1.6a2.6,2.6,0,0,1-.81,3.21,2.53,2.53,0,0,1-1.48,3.32,1.29,1.29,0,0,1,.09,1.7,3.61,3.61,0,0,1-1.51,1.09,1.09,1.09,0,0,1,.26,1.52,2.49,2.49,0,0,1-1.44.88,1,1,0,0,0-.64.34c-.27.38.09.9,0,1.36-.12.7-1.1.9-1.4,1.55s.08,1.38-.38,1.81c-.3.28-.77.23-1.16.37-.69.24-1,1-1.43,1.6a6.21,6.21,0,0,1-3.57,1.92c-.68.17-1.37.32-2.06.45-1.38.25-2.77.42-4.16.59-.69.08-1.54.09-1.9-.5a2.4,2.4,0,0,1-3.82-.45,5.78,5.78,0,0,1-3.71-.71l-1.22-.53c-1.22-.53-2.57-1.21-2.93-2.48a2.68,2.68,0,0,1-1.92-3.66c-.55.16-1.09-.4-1.17-1a5.28,5.28,0,0,1,.21-1.71c.42-2.3-.8-4.65-.48-7,.22-1.63,1.19-3.24.73-4.81a2.6,2.6,0,0,1-.23-1c0-.33.33-.68.65-.58a1.5,1.5,0,0,1,1.52-2" style="fill: rgb(38, 50, 56); transform-origin: 385.425px 138.703px;" id="ely6w6lm4skf" class="animable"></path><path d="M386.2,129.87c-.27,0-.33,1.78-1.9,3s-3.48,1-3.5,1.23.42.36,1.22.41a4.48,4.48,0,0,0,2.92-.92,4,4,0,0,0,1.48-2.52C386.51,130.32,386.32,129.87,386.2,129.87Z" style="fill: rgb(255, 255, 255); transform-origin: 383.621px 132.192px;" id="elun12x7vkxi" class="animable"></path><path d="M398.38,139.92a5.73,5.73,0,0,0,.41-.81,5.16,5.16,0,0,0,.18-2.17c-.13-1.74-.61-3.09-.53-3.12a7,7,0,0,1,.82,3.09,4.61,4.61,0,0,1-.28,2.27C398.73,139.74,398.4,140,398.38,139.92Z" style="fill: rgb(69, 90, 100); transform-origin: 398.839px 136.877px;" id="elugo383cs9q" class="animable"></path><path d="M400.19,138.43a10.38,10.38,0,0,0,.78-3.2,10.54,10.54,0,0,0-.51-3.26,2.13,2.13,0,0,1,.45.89,6.39,6.39,0,0,1,.35,2.38,6.68,6.68,0,0,1-.54,2.35A2.28,2.28,0,0,1,400.19,138.43Z" style="fill: rgb(69, 90, 100); transform-origin: 400.728px 135.2px;" id="elpelej205hmi" class="animable"></path><path d="M379.63,151a3.39,3.39,0,0,1-.77-1,7.9,7.9,0,0,1-.93-5.88,3.52,3.52,0,0,1,.44-1.18,11.48,11.48,0,0,1-.24,1.22,9.19,9.19,0,0,0,0,2.94,9.36,9.36,0,0,0,.92,2.8A10.37,10.37,0,0,1,379.63,151Z" style="fill: rgb(69, 90, 100); transform-origin: 378.676px 146.97px;" id="el6zxa49hhcen" class="animable"></path><path d="M381.53,150.87a5.36,5.36,0,0,1-1.58-2.69,5.29,5.29,0,0,1-.08-3.11,13.26,13.26,0,0,0,.36,3A14,14,0,0,0,381.53,150.87Z" style="fill: rgb(69, 90, 100); transform-origin: 380.602px 147.97px;" id="elsjdw0rhsdr7" class="animable"></path><path d="M384.85,150.22a1.78,1.78,0,0,1-.76-.37,5.1,5.1,0,0,1-1.41-1.49,5.18,5.18,0,0,1-.71-1.92,1.77,1.77,0,0,1,0-.84,9,9,0,0,0,.95,2.61A9.26,9.26,0,0,0,384.85,150.22Z" style="fill: rgb(69, 90, 100); transform-origin: 383.385px 147.91px;" id="elvgratatexn" class="animable"></path><path d="M287.39,237.11c-.18-.24-2.16-4.16-5.79-6.15s-6.31-3.34-8.29-4.58-3.58-1.91-3.56.63,2.37,4.12,4.21,5,3.23.94,2.32,2.7-5.85,3-8.38,3.38a63.53,63.53,0,0,0-10.68,3.22c-2.72,1.12-2.47,2.64-2.47,2.64a3.17,3.17,0,0,0-2.66,1.2,1.45,1.45,0,0,0,.26,2.36l1,.1A1.94,1.94,0,0,0,255,250c2.14.28,10.77-.74,10.77-.74s-6.61,1.25-7.69,2.27.15,2.1,1.08,2,16.15-2.2,18.34-2.2,11.48-4,11.48-4Z" style="fill: rgb(255, 191, 157); transform-origin: 270.289px 239.407px;" id="elxnswisxf1j" class="animable"></path><path d="M268.11,245.68c0,.17-3.27.48-7.31.93s-7.3.85-7.33.68a36.44,36.44,0,0,1,7.27-1.27A35.67,35.67,0,0,1,268.11,245.68Z" style="fill: rgb(255, 154, 108); transform-origin: 260.79px 246.475px;" id="elw53gixje1q9" class="animable"></path><path d="M268.8,241.37a67.7,67.7,0,0,1-7.12,1.29,66.63,66.63,0,0,1-7.15,1.1c0-.16,3.1-1,7-1.68A33.17,33.17,0,0,1,268.8,241.37Z" style="fill: rgb(255, 154, 108); transform-origin: 261.665px 242.564px;" id="el4pmwe7warw8" class="animable"></path><path d="M282,241.77c0,.07-.61.09-1.46-.33a6.08,6.08,0,0,1-2.54-2.57,11.23,11.23,0,0,1-1.11-3.41,3.44,3.44,0,0,1-.1-1.47c.08,0,.26.52.51,1.38a16.64,16.64,0,0,0,1.22,3.22,6.91,6.91,0,0,0,2.23,2.49C281.51,241.55,282.06,241.68,282,241.77Z" style="fill: rgb(255, 154, 108); transform-origin: 279.378px 237.9px;" id="elmy5spazc6xf" class="animable"></path><path d="M350.84,168.21l-14,23.31-15.86,23-34.8,21.83,2.07,11.14s36.43-11.71,40.59-13.49,23.33-24.27,23.33-24.27S353.51,166.82,350.84,168.21Z" style="fill: rgb(255, 191, 157); transform-origin: 319.343px 207.833px;" id="elvcgp6h2mein" class="animable"></path><path d="M366.67,434.69l.85,22.95s-22.31,8.59-22.55,12.84l43.15-.09.1-35.8Z" style="fill: rgb(38, 50, 56); transform-origin: 366.595px 452.535px;" id="elenga0bkjjue" class="animable"></path><path d="M380.86,455.68a1.82,1.82,0,0,1,1.22,2.07,1.69,1.69,0,0,1-2,1.27,1.93,1.93,0,0,1-1.29-2.2,1.75,1.75,0,0,1,2.21-1.09" style="fill: rgb(224, 224, 224); transform-origin: 380.433px 457.349px;" id="elee4zxvqi8h" class="animable"></path><path d="M388.12,470.39l-.13-3.61-41.32,1.44s-1.92.87-1.7,2.26Z" style="fill: rgb(69, 90, 100); transform-origin: 366.536px 468.63px;" id="elvadp0w5tq8" class="animable"></path><path d="M366.82,457.41c0,.22,1.06.31,2.1,1s1.59,1.61,1.78,1.52-.12-1.34-1.39-2.16S366.77,457.21,366.82,457.41Z" style="fill: rgb(255, 255, 255); transform-origin: 368.785px 458.571px;" id="elq9zxe77izd" class="animable"></path><path d="M362.3,459.35c-.05.21.86.58,1.58,1.5s.93,1.89,1.14,1.88.34-1.24-.58-2.36S362.3,459.14,362.3,459.35Z" style="fill: rgb(255, 255, 255); transform-origin: 363.735px 460.997px;" id="elff2u6jasxs" class="animable"></path><path d="M359.74,465c.19.05.48-1-.06-2.23s-1.53-1.66-1.62-1.48.52.81.95,1.8S359.53,464.93,359.74,465Z" style="fill: rgb(255, 255, 255); transform-origin: 359.021px 463.126px;" id="el6izxwcbe9qw" class="animable"></path><path d="M367.19,452.16c.09.2,1.05-.1,2.24,0s2.12.46,2.23.28-.78-1-2.19-1S367.08,452,367.19,452.16Z" style="fill: rgb(255, 255, 255); transform-origin: 369.425px 451.965px;" id="elxa6750js9wi" class="animable"></path><path d="M416.51,434.84l2.33,27.67-4.26,22.43a2.82,2.82,0,0,0,2.36,3.37h0a2.69,2.69,0,0,0,2.37-.89c3.84-4.33,17.91-20.32,17.63-22.34-.33-2.33-.59-29.35-.59-29.35Z" style="fill: rgb(38, 50, 56); transform-origin: 425.732px 461.586px;" id="elzwuh8lhj6i" class="animable"></path><path d="M416.94,488.31l19.88-25.1.08,1.18a4.42,4.42,0,0,1-.81,2.84c-1.58,2.18-6.06,8.1-16.7,20.19a2.69,2.69,0,0,1-2.45.89Z" style="fill: rgb(69, 90, 100); transform-origin: 426.924px 475.777px;" id="el7mo5bn4pu7g" class="animable"></path><g id="els9s349cj66e"><g style="opacity: 0.6; transform-origin: 431.704px 455.934px;" class="animable"><path d="M430.76,454.64a1.75,1.75,0,0,0-.32,2.27,1.57,1.57,0,0,0,2.18.35,1.85,1.85,0,0,0,.32-2.41,1.61,1.61,0,0,0-2.3-.1" style="fill: rgb(255, 255, 255); transform-origin: 431.704px 455.934px;" id="elp30j0t1wnn" class="animable"></path></g></g><path d="M422.32,475.8a8.26,8.26,0,0,0-2.49-2,8.13,8.13,0,0,0-3.13-.41c0-.06.3-.3.92-.44a4.29,4.29,0,0,1,2.44.28,4.38,4.38,0,0,1,1.91,1.58C422.32,475.36,422.39,475.77,422.32,475.8Z" style="fill: rgb(255, 255, 255); transform-origin: 419.522px 474.342px;" id="elhw3gp3k4m6c" class="animable"></path><path d="M420.64,479.64a20.37,20.37,0,0,0-2.45-1,21.53,21.53,0,0,0-2.65-.17c-.08-.14,1.17-.81,2.78-.42S420.77,479.55,420.64,479.64Z" style="fill: rgb(255, 255, 255); transform-origin: 418.095px 478.785px;" id="eljkou4bs6pp" class="animable"></path><path d="M425.58,470.8c-.11.14-1.52-1.16-3.68-1.86s-4-.51-4-.69,1.92-.66,4.22.11A6.09,6.09,0,0,1,425.58,470.8Z" style="fill: rgb(255, 255, 255); transform-origin: 421.74px 469.373px;" id="el6bfqmcni4pw" class="animable"></path><path d="M425.55,462.33c-.06.17-1.58-.37-3.51-.31s-3.44.63-3.51.46a6.69,6.69,0,0,1,7-.15Z" style="fill: rgb(255, 255, 255); transform-origin: 422.04px 461.963px;" id="elgj310kb2lir" class="animable"></path><path d="M425.07,454.19c-.08.17-1.62-.66-3.66-.43s-3.4,1.31-3.5,1.16.22-.42.82-.83a5.89,5.89,0,0,1,5.38-.55C424.77,453.82,425.1,454.13,425.07,454.19Z" style="fill: rgb(255, 255, 255); transform-origin: 421.482px 454.032px;" id="elckp3iqcetrm" class="animable"></path><path d="M421.36,452.21a2.69,2.69,0,0,1-.1-1,7.56,7.56,0,0,1,.64-2.8,3.18,3.18,0,0,1,1.25-1.63,1.07,1.07,0,0,1,1.26.17,1.87,1.87,0,0,1,.5,1.22,4,4,0,0,1-3.18,3.94,4.46,4.46,0,0,1-4.58-2.14,1.67,1.67,0,0,1-.16-1.34,1.09,1.09,0,0,1,1.1-.67,3.79,3.79,0,0,1,1.83.83,8.25,8.25,0,0,1,2,2,2.49,2.49,0,0,1,.47.94,12.73,12.73,0,0,0-2.67-2.61,3.53,3.53,0,0,0-1.61-.68.57.57,0,0,0-.6.36,1.14,1.14,0,0,0,.15.87,4,4,0,0,0,4,1.81,3.47,3.47,0,0,0,2.75-3.3,1.37,1.37,0,0,0-.32-.87.58.58,0,0,0-.69-.11,2.87,2.87,0,0,0-1.08,1.36A11.38,11.38,0,0,0,421.36,452.21Z" style="fill: rgb(255, 255, 255); transform-origin: 420.913px 449.429px;" id="el6ol3o9v2ww" class="animable"></path><path d="M433.66,370.53l-5.53-85.08-2.26-17.76-77.5,11.92c.21,5.71,15.4,176.54,15.4,176.54h25.89l-1.34-149.4,2.17.55s11.94,63.75,12.7,74c.68,9.23,9.49,75.9,9.49,75.9l25,0Z" style="fill: rgb(38, 50, 56); transform-origin: 393.025px 362.445px;" id="el6zorr6y16rp" class="animable"></path><path d="M458.06,283.08c.31.56,2.42,14.12,2,15.17s-2.34,7.85-3.34,9.32-6.23,5.48-6.94,4.69-1.28-2.47-.22-3.33l-4.85-.21s.08-2.31,1.76-2.89l-2.07-.94s1-2.17,2.46-2.1.84.35.84.35l1.49-1.56s.55-5.21,0-6.54-2.4-2.66-2.14-5.63,2.15-5.93,1.9-6.7a34.63,34.63,0,0,1-.47-4.1s7.65-2.27,8-2.28S458.06,283.08,458.06,283.08Z" style="fill: rgb(255, 191, 157); transform-origin: 452.258px 294.346px;" id="el157luunbu86" class="animable"></path><path d="M449.36,295.61c.1,0-.06,1.48.33,3.79a16.64,16.64,0,0,0,1.18,3.9,2.21,2.21,0,0,0,1.63,1.34c.73.1,1.37-.57,1.56-1.37a4.17,4.17,0,0,0-.24-2.43,9.18,9.18,0,0,1-.57-2.45,12.16,12.16,0,0,1,.83-4.12,14.34,14.34,0,0,0,.68-2.69,7.52,7.52,0,0,1,.09-1,2.55,2.55,0,0,1,.11,1,12,12,0,0,1-.52,2.77,12.58,12.58,0,0,0-.71,4,9.27,9.27,0,0,0,.57,2.31,4.63,4.63,0,0,1,.27,2.73,2.81,2.81,0,0,1-.73,1.26,1.77,1.77,0,0,1-1.39.48,2.69,2.69,0,0,1-2-1.64,14.9,14.9,0,0,1-1.11-4.06,14.51,14.51,0,0,1-.11-2.82A3.44,3.44,0,0,1,449.36,295.61Z" style="fill: rgb(255, 154, 108); transform-origin: 452.088px 297.859px;" id="elyg6k64evwcp" class="animable"></path><path d="M429.15,166.32h2.54s8.32,7.1,10.83,13.79,4.46,16.47,4.27,22.65,2.88,16.2,3.81,24.87c0,0,6.85,22.63,5.74,46.05l.69,5.78-8.09,3.25s-9.53-26.87-10.54-33.06-1.72-9-3-16.05S426.69,212.49,427,209l-1.34-11a147.45,147.45,0,0,0-.63-16.25,30.46,30.46,0,0,1,3-15.42" style="fill: rgb(255, 191, 157); transform-origin: 440.994px 224.515px;" id="eldklebbhupdi" class="animable"></path><path d="M449.18,295a29.44,29.44,0,0,0,1,7.29,5.56,5.56,0,0,0,.75,1.77,2,2,0,0,0,3.65-.76,5.25,5.25,0,0,0-.24-2.85,11.66,11.66,0,0,1-.69-2.81c-.12-2.5,1.84-4.94,1.11-7.34" style="fill: rgb(255, 191, 157); transform-origin: 452.052px 297.635px;" id="elqcuxessas6m" class="animable"></path><path d="M454.75,290.34a2,2,0,0,1,.28,1.06,8.5,8.5,0,0,1-.5,2.94,8,8,0,0,0-.51,4.14c.17.78.5,1.57.74,2.46a4.54,4.54,0,0,1-.05,2.91,2.7,2.7,0,0,1-1,1.18,2,2,0,0,1-1.52.29,3,3,0,0,1-1.95-1.93,21.49,21.49,0,0,1-1-4.31,25.13,25.13,0,0,1-.19-3,3.51,3.51,0,0,1,.09-1.08c.09,0,.11,1.54.52,4a23.24,23.24,0,0,0,1,4.17,2.42,2.42,0,0,0,1.56,1.57,1.75,1.75,0,0,0,1.86-1.15,3.88,3.88,0,0,0,0-2.52c-.21-.83-.53-1.65-.7-2.48a8,8,0,0,1,.64-4.39,9.16,9.16,0,0,0,.66-2.8C454.81,290.73,454.7,290.36,454.75,290.34Z" style="fill: rgb(255, 154, 108); transform-origin: 452.036px 297.852px;" id="eldslln0zh93b" class="animable"></path><path d="M428.85,218.83l22.87-9.68s-6.36-24.6-10.76-35.09-10.06-11.33-10.06-11.33l-25.63-9.52s-8.19,7.65-17.1,7.65-10-3.92-10-3.92L352,163.74s-2.31,1.39-5.62,6-17.54,25.91-17.54,25.91l18.6,21,4.69-6.95h0l-1.29,28-2.51,45,79.51-2.15-3-40.32,2.27-27.57C428.08,216,428.92,219.17,428.85,218.83Z" style="fill: rgb(69, 90, 100); transform-origin: 390.28px 217.955px;" id="el6sibzkv5ar3" class="animable"></path><polygon points="348.37 387.06 430.16 385.39 424.9 269.77 427.32 269.41 426.3 255.26 419.89 248.7 417.41 187.96 355.15 187.96 351.23 250.22 348.37 279.61 348.37 387.06" style="fill: rgb(255, 193, 0); transform-origin: 389.265px 287.51px;" id="elp2mekapb1db" class="animable"></polygon><path d="M357.74,195.41l.67-33.33c1.65-1.48,4.28-3,7.09-2.19l-.86,35.52Z" style="fill: rgb(174, 116, 97); transform-origin: 361.62px 177.537px;" id="elsp7wchvkkae" class="animable"></path><path d="M363.08,192a1.82,1.82,0,1,1-1.82-1.82A1.82,1.82,0,0,1,363.08,192Z" style="fill: rgb(38, 50, 56); transform-origin: 361.26px 192px;" id="el9lkvsfd0qq9" class="animable"></path><path d="M364.79,187.64a12.6,12.6,0,0,1,.11,2.19c0,1.38,0,3.32,0,5.58v.24h-.24l-3.45,0-3.45,0h-.25v-.25c.07-2.26.15-4.2.22-5.57a11.29,11.29,0,0,1,.21-2.19,11.08,11.08,0,0,1,.1,2.19c0,1.38,0,3.32,0,5.58l-.25-.25h6.9l-.25.24c.06-2.26.13-4.2.2-5.57A10.92,10.92,0,0,1,364.79,187.64Z" style="fill: rgb(38, 50, 56); transform-origin: 361.209px 191.645px;" id="elegpmbpqeo7p" class="animable"></path><path d="M406.15,195.41l3.29-40.75c1.48-.21,5.6,1.18,6.45,2.42l-2.84,38.33Z" style="fill: rgb(174, 116, 97); transform-origin: 411.02px 175.024px;" id="elxpx1s1f1b9" class="animable"></path><path d="M411.49,192a1.82,1.82,0,1,1-1.82-1.82A1.82,1.82,0,0,1,411.49,192Z" style="fill: rgb(38, 50, 56); transform-origin: 409.67px 192px;" id="ely9uy9hr7qy" class="animable"></path><path d="M413.2,187.64a12.6,12.6,0,0,1,.11,2.19c0,1.38,0,3.32,0,5.58v.24h-.24l-3.45,0-3.45,0h-.25v-.25c.07-2.26.15-4.2.22-5.57a11.29,11.29,0,0,1,.21-2.19,11.08,11.08,0,0,1,.1,2.19c0,1.38,0,3.32,0,5.58l-.25-.25h6.9l-.25.24c.06-2.26.13-4.2.2-5.57A10.92,10.92,0,0,1,413.2,187.64Z" style="fill: rgb(38, 50, 56); transform-origin: 409.619px 191.645px;" id="elclurv7pmft7" class="animable"></path><path d="M371.92,257.59a52.84,52.84,0,0,1-2.48-6.48,3.88,3.88,0,0,1,.57-2.44h0a4.28,4.28,0,0,0,.71-3.58c-.49-2.18-2.38-3.61-4.21-3.2l-.06,0a3.5,3.5,0,0,0-2.94-2.47c-.57-.05-.6.83,0,.89a2.62,2.62,0,0,1,2.16,1.92,4,4,0,0,0-1.55,4.34,4.14,4.14,0,0,0,2.72,3.13h0c1.65,1,4.21,8.31,4.21,8.31Zm-7.12-11.16a2.71,2.71,0,1,1,3.3,2.5A2.95,2.95,0,0,1,364.8,246.43Z" style="fill: rgb(224, 224, 224); transform-origin: 367.496px 248.714px;" id="elsi0jtxaxa7f" class="animable"></path><path d="M378.06,250.13h0A4.16,4.16,0,0,0,381,247.2c.64-2.14-.29-4.31-2.08-4.86s-3.78.75-4.43,2.88a4.27,4.27,0,0,0,.45,3.62h0a3.9,3.9,0,0,1,.39,2.49,53.7,53.7,0,0,1-2.94,6.28l.86.5S376.34,251,378.06,250.13Zm-2.87-4.7a2.71,2.71,0,1,1,1.63,3.82A3,3,0,0,1,375.19,245.43Z" style="fill: rgb(224, 224, 224); transform-origin: 376.796px 250.162px;" id="ellqq2c5a8b9" class="animable"></path><path d="M371.23,280.94c1.94.07,2.34-23.17,2.34-23.17l-.65-1.18-1.46,0-.89,1.12S369.29,280.86,371.23,280.94Z" style="fill: rgb(224, 224, 224); transform-origin: 371.863px 268.765px;" id="eli0tmd5gg6qh" class="animable"></path><path d="M371.35,259.21a.73.73,0,1,1,.7.75A.73.73,0,0,1,371.35,259.21Z" style="fill: rgb(255, 255, 255); transform-origin: 372.08px 259.231px;" id="elnatjodt827" class="animable"></path><path d="M393.82,246.54a19.54,19.54,0,0,1-2.61,5.89,16.83,16.83,0,0,0,2.12-6.05c-.3-.09-.65-.17-1-.25a24,24,0,0,1-2.39,6.79,25.39,25.39,0,0,0,1.78-6.89c-.51-.08-1.08-.13-1.73-.17a18.37,18.37,0,0,1-1,7.06,32.87,32.87,0,0,0,.41-7.07h-.54l-1,0c.18,2.75.46,5.78.46,5.78a43,43,0,0,1-.94-5.75c-.44,0-.83.07-1.2.13a25.22,25.22,0,0,0,1.78,6.9,23.81,23.81,0,0,1-2.39-6.81l-1.05.24a16.93,16.93,0,0,0,2.13,6.08,19.88,19.88,0,0,1-2.62-5.92,4.69,4.69,0,0,0-1.45.72,14.08,14.08,0,0,0,3.82,8.56h5a14.11,14.11,0,0,0,3.81-8.56A4.43,4.43,0,0,0,393.82,246.54Z" style="fill: rgb(38, 50, 56); transform-origin: 388.895px 250.815px;" id="elc58rtl9oc6q" class="animable"></path><path d="M386.15,264.31h5.42s2-3.65,1.83-5.89-1.69-2.91-4.52-2.92h0c-2.83,0-4.33.68-4.52,2.92S386.15,264.31,386.15,264.31Z" style="fill: rgb(69, 90, 100); transform-origin: 388.879px 259.905px;" id="elvpxelpep2jr" class="animable"></path><path d="M403.47,242.22l-4,.26,3.95.71v.08l-4-.39,0,.36,4,.39,0,.37-4-.39,0,.36,4,.39,0,.37-4-.39,0,.36,4,.4,0,.36-4-.39,0,.36,4,.4,0,.36-4-.39,0,.36,4,.4,0,.36-4-.39,0,.36,4,.4,0,.36-4-.39,0,.36,4,.4,0,.36-4-.39,0,.36,4,.4,0,.36-4-.39,0,.36,4,.4,0,.36-4-.39,0,.36,4,.4,0,.36-4-.39,0,.36,4,.4,0,.36-4-.39,0,.36,4,.4,0,.37-4-.4,0,.36,4,.4,0,.37-4-.4,0,.36,4,.4,0,.37-4-.4,0,.37,4,.39,0,.37-4-.4,0,.37,4,.39,0,.37-4-.4,0,.37,4,.39,0,.37-4-.4,0,.37,4,.39,0,.37-4-.4,0,.37,4,.39,0,.37-4-.4,0,.37,4,.39,0,.37-4-.4,0,.37,4,.4,0,.36-4-.4,0,.37,4,.4,0,.36-4-.4,0,.37,4,.4,0,.36-4-.4,0,.37,4,.4,0,.36-4-.4,0,.37,4,.4,0,.36-4.05-.4,0,.37,4,.4,0,.36-4.05-.4,0,.37,4,.4,0,.36-4.05-.4,0,.37,4,.4,0,.36-4.05-.4,0,.37,4.06.4,0,.21-4.06-.4s3.86,2.35,3.74,3.56-1.87,20.63-.9,20.72h0s.57.06,1.8-12.35,3.12-31.65,3.12-31.65A1.54,1.54,0,0,0,403.47,242.22Z" style="fill: rgb(38, 50, 56); transform-origin: 403.227px 264.687px;" id="elkwulw1s2bfq" class="animable"></path><g id="elxv34vmzaf5"><g style="opacity: 0.3; transform-origin: 387.63px 294.736px;" class="animable"><path d="M367.9,293.58c4.48,3.5,13.63,5.33,20.65,5.15s14.27-2.64,18.81-8C394.68,294.57,381.14,294,367.9,293.58Z" id="elze34hruxddj" class="animable" style="transform-origin: 387.63px 294.736px;"></path></g></g><path d="M396.83,295.7H374.11a12.84,12.84,0,0,1-12.85-12.84V258h48.41v24.89A12.84,12.84,0,0,1,396.83,295.7Z" style="fill: rgb(174, 116, 97); transform-origin: 385.465px 276.85px;" id="elc0o7bmhf9vv" class="animable"></path><path d="M396.83,295.7a19.76,19.76,0,0,0,3.22-.5,12.16,12.16,0,0,0,3.55-1.57,13.08,13.08,0,0,0,3.73-3.62,13,13,0,0,0,2.12-6c.1-2.34,0-4.93,0-7.67,0-5.48,0-11.64,0-18.33l.23.24-35.56,0H361.26l.26-.26c0,4.81,0,9.48,0,14,0,2.24,0,4.44,0,6.58v3.18a18.14,18.14,0,0,0,.15,3.06,12.64,12.64,0,0,0,6.16,9.06,12.51,12.51,0,0,0,4.81,1.61c1.62.16,3.24.08,4.75.11l14.28.08,3.85,0,1,0a1.23,1.23,0,0,1,.34,0,1.23,1.23,0,0,1-.34,0l-1,0-3.85,0-14.28.08c-1.52,0-3.1.08-4.79-.08a12.88,12.88,0,0,1-5-1.63,13.06,13.06,0,0,1-6.41-9.34,19.27,19.27,0,0,1-.17-3.13v-3.18c0-2.14,0-4.34,0-6.58,0-4.48,0-9.15,0-14v-.25h13.1l35.56,0h.24V258c0,6.69,0,12.85,0,18.33,0,2.75,0,5.3-.09,7.7a12.83,12.83,0,0,1-6.07,9.81,11.83,11.83,0,0,1-3.62,1.53,8.74,8.74,0,0,1-1.4.27,5.74,5.74,0,0,1-1,.08l-.63,0Z" style="fill: rgb(111, 68, 57); transform-origin: 385.466px 276.665px;" id="el7u2h0zvdxjq" class="animable"></path><rect x="375.47" y="199.56" width="20.1" height="4.31" rx="1.89" style="fill: rgb(255, 255, 255); transform-origin: 385.52px 201.715px;" id="elx2efclyt6fn" class="animable"></rect><path d="M348.65,182.34a4.62,4.62,0,0,1,.2,1.17c.1.87.23,2,.37,3.22.33,2.84.75,6.53,1.22,10.62s1,7.77,1.36,10.6c.17,1.27.3,2.34.42,3.21a5.31,5.31,0,0,1,.08,1.19,5.93,5.93,0,0,1-.28-1.16c-.16-.75-.35-1.84-.58-3.19-.45-2.7-1-6.44-1.51-10.59s-.87-7.91-1.07-10.64c-.11-1.37-.18-2.47-.21-3.24A6.08,6.08,0,0,1,348.65,182.34Z" style="fill: rgb(38, 50, 56); transform-origin: 350.463px 197.345px;" id="elql8u3xbxqfn" class="animable"></path><path d="M429.52,185.12c.14,0-.24,6.85-.86,15.27s-1.23,15.23-1.37,15.22.24-6.84.85-15.26S429.38,185.11,429.52,185.12Z" style="fill: rgb(38, 50, 56); transform-origin: 428.405px 200.365px;" id="el7e16576ei1" class="animable"></path><path d="M397.11,310.27c.13.07-6,13.5-13.66,30s-14,29.85-14.13,29.79,6-13.49,13.66-30S397,310.21,397.11,310.27Z" style="fill: rgb(38, 50, 56); transform-origin: 383.215px 340.165px;" id="el0lrjiwy4ifyi" class="animable"></path><path d="M394.85,330.68a8.16,8.16,0,0,1-.18,1.54c-.16,1-.37,2.4-.61,4.16-.49,3.51-1,8.39-1.21,13.8a135.41,135.41,0,0,0,.21,13.86c.11,1.77.22,3.21.31,4.2a8.12,8.12,0,0,1,.07,1.54,9.41,9.41,0,0,1-.27-1.52c-.15-1-.32-2.42-.48-4.19a110.32,110.32,0,0,1-.36-13.9,113,113,0,0,1,1.36-13.85c.29-1.75.56-3.17.78-4.14A9.28,9.28,0,0,1,394.85,330.68Z" style="fill: rgb(38, 50, 56); transform-origin: 393.552px 350.23px;" id="el8a2gaw4menb" class="animable"></path></g><defs>     <filter id="active" height="200%">         <feMorphology in="SourceAlpha" result="DILATED" operator="dilate" radius="2"></feMorphology>                <feFlood flood-color="#32DFEC" flood-opacity="1" result="PINK"></feFlood>        <feComposite in="PINK" in2="DILATED" operator="in" result="OUTLINE"></feComposite>        <feMerge>            <feMergeNode in="OUTLINE"></feMergeNode>            <feMergeNode in="SourceGraphic"></feMergeNode>        </feMerge>    </filter>    <filter id="hover" height="200%">        <feMorphology in="SourceAlpha" result="DILATED" operator="dilate" radius="2"></feMorphology>                <feFlood flood-color="#ff0000" flood-opacity="0.5" result="PINK"></feFlood>        <feComposite in="PINK" in2="DILATED" operator="in" result="OUTLINE"></feComposite>        <feMerge>            <feMergeNode in="OUTLINE"></feMergeNode>            <feMergeNode in="SourceGraphic"></feMergeNode>        </feMerge>            <feColorMatrix type="matrix" values="0   0   0   0   0                0   1   0   0   0                0   0   0   0   0                0   0   0   1   0 "></feColorMatrix>    </filter></defs></svg>